<svg xmlns="http://www.w3.org/2000/svg" viewBox="0 0 512 512">
  <defs>
    <radialGradient id="bg" cx="40%" cy="35%" r="65%">
      <stop offset="0%" stop-color="#4A9EE0"/>
      <stop offset="100%" stop-color="#1A5A9E"/>
    </radialGradient>
    <radialGradient id="shine" cx="30%" cy="25%" r="50%">
      <stop offset="0%" stop-color="#fff" stop-opacity="0.25"/>
      <stop offset="100%" stop-color="#fff" stop-opacity="0"/>
    </radialGradient>
  </defs>

  <!-- 바다 배경 (원형) -->
  <circle cx="256" cy="256" r="240" fill="url(#bg)"/>

  <!-- 대륙 복셀 블록들 -->
  <g fill="#5C9E4C">
    <!-- 북미 -->
    <rect x="80" y="120" width="36" height="36" rx="3"/>
    <rect x="116" y="120" width="36" height="36" rx="3"/>
    <rect x="80" y="156" width="36" height="36" rx="3"/>
    <rect x="116" y="156" width="36" height="36" rx="3"/>
    <rect x="152" y="156" width="36" height="36" rx="3"/>
    <rect x="80" y="192" width="36" height="36" rx="3"/>
    <rect x="116" y="192" width="36" height="36" rx="3"/>
    <rect x="152" y="192" width="36" height="36" rx="3"/>
    <rect x="116" y="228" width="36" height="36" rx="3"/>
    <rect x="152" y="228" width="36" height="36" rx="3"/>
  </g>

  <g fill="#6BBF59">
    <!-- 남미 -->
    <rect x="152" y="280" width="36" height="36" rx="3"/>
    <rect x="172" y="316" width="36" height="36" rx="3"/>
    <rect x="162" y="352" width="36" height="36" rx="3"/>
    <rect x="152" y="388" width="36" height="36" rx="3"/>
  </g>

  <g fill="#3A7D44">
    <!-- 유럽 -->
    <rect x="260" y="120" width="32" height="32" rx="3"/>
    <rect x="292" y="120" width="32" height="32" rx="3"/>
    <rect x="260" y="152" width="32" height="32" rx="3"/>
    <rect x="292" y="152" width="32" height="32" rx="3"/>
    <rect x="324" y="136" width="32" height="32" rx="3"/>
  </g>

  <g fill="#5C9E4C">
    <!-- 아프리카 -->
    <rect x="270" y="200" width="36" height="36" rx="3"/>
    <rect x="306" y="200" width="36" height="36" rx="3"/>
    <rect x="270" y="236" width="36" height="36" rx="3"/>
    <rect x="306" y="236" width="36" height="36" rx="3"/>
    <rect x="280" y="272" width="36" height="36" rx="3"/>
    <rect x="316" y="272" width="36" height="36" rx="3"/>
    <rect x="290" y="308" width="36" height="36" rx="3"/>
    <rect x="300" y="344" width="32" height="32" rx="3"/>
  </g>

  <g fill="#3A7D44">
    <!-- 아시아 -->
    <rect x="356" y="120" width="34" height="34" rx="3"/>
    <rect x="390" y="120" width="34" height="34" rx="3"/>
    <rect x="356" y="154" width="34" height="34" rx="3"/>
    <rect x="390" y="154" width="34" height="34" rx="3"/>
    <rect x="424" y="154" width="34" height="34" rx="3"/>
    <rect x="370" y="188" width="34" height="34" rx="3"/>
    <rect x="404" y="188" width="34" height="34" rx="3"/>
    <rect x="390" y="222" width="34" height="34" rx="3"/>
  </g>

  <g fill="#6BBF59">
    <!-- 호주 -->
    <rect x="390" y="320" width="34" height="34" rx="3"/>
    <rect x="424" y="320" width="34" height="34" rx="3"/>
    <rect x="400" y="354" width="34" height="34" rx="3"/>
    <rect x="434" y="354" width="34" height="34" rx="3"/>
  </g>

  <!-- 극지방 얼음 -->
  <g fill="#E8E8E8" opacity="0.7">
    <rect x="200" y="68" width="28" height="28" rx="3"/>
    <rect x="228" y="68" width="28" height="28" rx="3"/>
    <rect x="256" y="68" width="28" height="28" rx="3"/>
    <rect x="284" y="68" width="28" height="28" rx="3"/>
    <rect x="180" y="420" width="28" height="28" rx="3"/>
    <rect x="208" y="420" width="28" height="28" rx="3"/>
    <rect x="236" y="420" width="28" height="28" rx="3"/>
    <rect x="264" y="420" width="28" height="28" rx="3"/>
    <rect x="292" y="420" width="28" height="28" rx="3"/>
  </g>

  <!-- 광택 -->
  <circle cx="256" cy="256" r="240" fill="url(#shine)"/>
</svg>
